<svg xmlns="http://www.w3.org/2000/svg" version="1.1" xmlns:xlink="http://www.w3.org/1999/xlink" xmlns:svgjs="http://svgjs.dev/svgjs" width="1000" height="999" viewBox="0 0 1000 999"><g transform="matrix(1,0,0,1,-0.215743440233382,-0.21552769679306039)"><svg viewBox="0 0 343 343" data-background-color="#883d1a" preserveAspectRatio="xMidYMid meet" height="999" width="1000" xmlns="http://www.w3.org/2000/svg" xmlns:xlink="http://www.w3.org/1999/xlink"><g id="tight-bounds" transform="matrix(1,0,0,1,0.0740000000000407,0.07400000000001228)"><svg viewBox="0 0 342.85155851775386 342.85155851775386" height="342.85155851775386" width="342.85155851775386"><g><svg></svg></g><g><svg viewBox="0 0 342.85155851775386 342.85155851775386" height="342.85155851775386" width="342.85155851775386"><g><path d="M0 171.426c0-94.676 76.75-171.426 171.426-171.426 94.676 0 171.426 76.75 171.426 171.426 0 94.676-76.75 171.426-171.426 171.426-94.676 0-171.426-76.75-171.426-171.426zM171.426 338.948c92.52 0 167.523-75.002 167.522-167.522 0-92.52-75.002-167.523-167.522-167.523-92.52 0-167.523 75.002-167.523 167.523 0 92.52 75.002 167.523 167.523 167.522z" data-fill-palette-color="tertiary" fill="#ffffff" stroke="transparent"></path><ellipse rx="164.56874808852186" ry="164.56874808852186" cx="171.42577925887693" cy="171.42577925887693" fill="#ffffff" stroke="transparent" stroke-width="0" fill-opacity="1" data-fill-palette-color="tertiary"></ellipse></g><g transform="matrix(1,0,0,1,64.84655864529837,114.76829740049797)"><svg viewBox="0 0 213.1584412271571 113.31496371675792" height="113.31496371675792" width="213.1584412271571"><g><svg viewBox="0 0 213.1584412271571 113.31496371675792" height="113.31496371675792" width="213.1584412271571"><g><svg viewBox="0 0 213.1584412271571 113.31496371675792" height="113.31496371675792" width="213.1584412271571"><g transform="matrix(1,0,0,1,0,70.03319354784078)"><svg viewBox="0 0 213.1584412271571 43.28177016891714" height="43.28177016891714" width="213.1584412271571"><g id="textblocktransform"><svg viewBox="0 0 213.1584412271571 43.28177016891714" height="43.28177016891714" width="213.1584412271571" id="textblock"><g><svg viewBox="0 0 213.1584412271571 43.28177016891714" height="43.28177016891714" width="213.1584412271571"><g transform="matrix(1,0,0,1,0,0)"><svg width="213.1584412271571" viewBox="1.75 -37.5 186.8800048828125 37.95000076293945" height="43.28177016891714" data-palette-color="#883d1a"><path d="M1.75 0L13.85 0 13.85-3.95 8.15-3.95 8.15-15.6 13.6-15.6Q18.7-15.6 21.4-18.28 24.1-20.95 24.1-25.5L24.1-25.5Q24.1-28.05 22.9-29.85 21.7-31.65 19.9-32.8L19.9-32.8Q18.1-33.95 16.03-34.48 13.95-35 12.25-35L12.25-35 1.75-35 1.75-31.05 4-31.05 4-3.95 1.75-3.95 1.75 0ZM8.15-19.6L8.15-31.05 12.55-31.05Q14.1-31.05 15.48-30.6 16.85-30.15 17.85-29.4L17.85-29.4Q18.8-28.6 19.38-27.6 19.95-26.6 19.95-25.5L19.95-25.5Q19.95-24.55 19.6-23.5 19.25-22.45 18.4-21.6L18.4-21.6Q17.55-20.75 16.13-20.18 14.7-19.6 12.5-19.6L12.5-19.6 8.15-19.6ZM27.6 0L38.7 0 38.7-3.95 35.55-3.95 35.55-9.1Q35.55-10.65 36.22-11.9 36.9-13.15 38.1-13.95L38.1-13.95Q38.9-14.5 39.97-14.8 41.05-15.1 42.3-15.1L42.3-15.1 42.6-19.2Q41.85-19.2 40.87-18.85 39.9-18.5 38.85-17.8L38.85-17.8Q37.85-17.15 36.92-16.18 36-15.2 35.4-13.95L35.4-13.95Q35.3-15.15 35.32-15.05 35.35-14.95 35.25-16.15L35.25-16.15 35.05-18.75 28.1-18.75 28.1-14.8 31.4-14.8 31.4-3.95 27.6-3.95 27.6 0ZM62.5 0L69.94 0 69.94-3.95 66.14-3.95 66.14-18.75 62.7-18.75Q62.7-18.15 62.62-17.53 62.55-16.9 62.5-16.4L62.5-16.4Q62.09-17.25 60.5-18.23 58.89-19.2 56.14-19.2L56.14-19.2Q54.05-19.2 52.2-18.4 50.34-17.6 48.99-16.25L48.99-16.25Q47.64-14.9 46.87-13.1 46.09-11.3 46.09-9.35L46.09-9.35Q46.09-7.35 46.87-5.58 47.64-3.8 48.99-2.45L48.99-2.45Q50.34-1.1 52.2-0.33 54.05 0.45 56.14 0.45L56.14 0.45Q57.59 0.45 58.74 0.13 59.89-0.2 60.75-0.65L60.75-0.65Q61.55-1.05 62-1.45 62.45-1.85 62.5-2L62.5-2Q62.5-1.65 62.5-1.5 62.5-1.35 62.5-1L62.5-1 62.5 0ZM56.14-15.15L56.14-15.15Q57.39-15.15 58.42-14.75 59.45-14.35 60.24-13.65L60.24-13.65Q61.05-12.9 61.52-11.8 62-10.7 62-9.4L62-9.4Q62-8.1 61.52-7 61.05-5.9 60.2-5.1L60.2-5.1Q59.45-4.4 58.42-4 57.39-3.6 56.14-3.6L56.14-3.6Q55.05-3.6 54.09-3.93 53.14-4.25 52.45-4.8L52.45-4.8Q51.45-5.6 50.87-6.8 50.3-8 50.3-9.4L50.3-9.4Q50.3-10.6 50.67-11.6 51.05-12.6 51.74-13.35L51.74-13.35Q52.49-14.2 53.64-14.68 54.8-15.15 56.14-15.15ZM85.49-1.85L85.49-1.85Q86.19-2.8 86.47-3.8 86.74-4.8 86.74-5.5L86.74-5.5Q86.74-7.05 86.19-8.08 85.64-9.1 84.79-9.8L84.79-9.8Q83.94-10.45 82.94-10.9 81.94-11.35 81.09-11.7L81.09-11.7Q80.19-12.05 79.54-12.43 78.89-12.8 78.79-13.4L78.79-13.4Q78.74-13.8 78.84-14.13 78.94-14.45 79.19-14.7L79.19-14.7Q79.44-14.9 79.84-15.03 80.24-15.15 80.79-15.15L80.79-15.15Q81.19-15.15 81.54-15.08 81.89-15 82.29-14.9L82.29-14.9 82.29-12.75 85.99-12.75 85.99-17.1Q85.44-17.7 84.72-18.1 83.99-18.5 83.24-18.75L83.24-18.75Q82.49-19 81.77-19.1 81.04-19.2 80.54-19.2L80.54-19.2Q79.69-19.2 78.64-18.9 77.59-18.6 76.69-17.9L76.69-17.9Q75.79-17.25 75.19-16.2 74.59-15.15 74.59-13.6L74.59-13.6Q74.59-11.85 75.19-10.8 75.79-9.75 76.69-9.2L76.69-9.2Q77.64-8.6 78.69-8.28 79.74-7.95 80.59-7.6L80.59-7.6Q81.49-7.3 82.02-6.83 82.54-6.35 82.54-5.45L82.54-5.45Q82.54-4.95 82.37-4.63 82.19-4.3 81.94-4.1L81.94-4.1Q81.59-3.85 81.17-3.75 80.74-3.65 80.34-3.65L80.34-3.65Q79.49-3.65 78.92-3.73 78.34-3.8 77.74-4.05L77.74-4.05 77.74-6 74.04-6 74.04-1.65Q75.04-0.55 76.74-0.08 78.44 0.4 80.29 0.4L80.29 0.4Q82.29 0.4 83.54-0.25 84.79-0.9 85.49-1.85ZM90.04 0L101.14 0 101.14-3.95 97.99-3.95 97.99-9.1Q97.99-10.4 98.54-11.5 99.09-12.6 99.99-13.4L99.99-13.4Q100.89-14.2 102.06-14.65 103.24-15.1 104.54-15.1L104.54-15.1Q106.44-15 107.31-14.03 108.19-13.05 108.29-11.7L108.29-11.7 108.29-3.95 104.44-3.95 104.44 0 115.54 0 115.54-3.95 112.44-3.95 112.44-13.6Q112.34-16.1 110.64-17.65 108.94-19.2 105.99-19.2L105.99-19.2Q103.14-19.05 101.04-17.73 98.94-16.4 97.84-13.95L97.84-13.95 97.99-16.2 97.99-37.5 90.04-37.5 90.04-33.55 93.84-33.55 93.84-3.95 90.04-3.95 90.04 0ZM135.44 0L142.89 0 142.89-3.95 139.09-3.95 139.09-18.75 135.64-18.75Q135.64-18.15 135.56-17.53 135.49-16.9 135.44-16.4L135.44-16.4Q135.04-17.25 133.44-18.23 131.84-19.2 129.09-19.2L129.09-19.2Q126.99-19.2 125.14-18.4 123.29-17.6 121.94-16.25L121.94-16.25Q120.59-14.9 119.81-13.1 119.04-11.3 119.04-9.35L119.04-9.35Q119.04-7.35 119.81-5.58 120.59-3.8 121.94-2.45L121.94-2.45Q123.29-1.1 125.14-0.33 126.99 0.45 129.09 0.45L129.09 0.45Q130.54 0.45 131.69 0.13 132.84-0.2 133.69-0.65L133.69-0.65Q134.49-1.05 134.94-1.45 135.39-1.85 135.44-2L135.44-2Q135.44-1.65 135.44-1.5 135.44-1.35 135.44-1L135.44-1 135.44 0ZM129.09-15.15L129.09-15.15Q130.34-15.15 131.36-14.75 132.39-14.35 133.19-13.65L133.19-13.65Q133.99-12.9 134.46-11.8 134.94-10.7 134.94-9.4L134.94-9.4Q134.94-8.1 134.46-7 133.99-5.9 133.14-5.1L133.14-5.1Q132.39-4.4 131.36-4 130.34-3.6 129.09-3.6L129.09-3.6Q127.99-3.6 127.04-3.93 126.09-4.25 125.39-4.8L125.39-4.8Q124.39-5.6 123.81-6.8 123.24-8 123.24-9.4L123.24-9.4Q123.24-10.6 123.61-11.6 123.99-12.6 124.69-13.35L124.69-13.35Q125.44-14.2 126.59-14.68 127.74-15.15 129.09-15.15ZM146.38 0L157.48 0 157.48-3.95 154.33-3.95 154.33-9.1Q154.33-10.4 154.88-11.5 155.44-12.6 156.33-13.4L156.33-13.4Q157.23-14.2 158.41-14.65 159.58-15.1 160.88-15.1L160.88-15.1Q162.78-15 163.66-14.03 164.53-13.05 164.63-11.7L164.63-11.7 164.63-3.95 160.78-3.95 160.78 0 171.88 0 171.88-3.95 168.78-3.95 168.78-13.6Q168.69-16.1 166.98-17.65 165.28-19.2 162.33-19.2L162.33-19.2Q159.63-19.2 157.41-17.78 155.19-16.35 154.19-13.95L154.19-13.95Q154.08-15.15 154.01-16.13 153.94-17.1 153.83-18.3L153.83-18.3 153.83-18.75 146.88-18.75 146.88-14.8 150.19-14.8 150.19-3.95 146.38-3.95 146.38 0ZM179.58 0L187.48 0 187.48-3.95 183.73-3.95 183.73-14.7 188.63-14.7 188.63-18.75 183.73-18.75 183.73-30.95 179.58-30.95 179.58-18.75 175.38-18.75 175.38-14.7 179.58-14.7 179.58 0Z" opacity="1" transform="matrix(1,0,0,1,0,0)" fill="#883d1a" class="undefined-text-0" data-fill-palette-color="quaternary" id="text-0"></path></svg></g></svg></g></svg></g></svg></g><g transform="matrix(1,0,0,1,69.39294240170277,0)"><svg viewBox="0 0 74.37255642375158 59.815406373443494" height="59.815406373443494" width="74.37255642375158"><g><svg xmlns="http://www.w3.org/2000/svg" xmlns:xlink="http://www.w3.org/1999/xlink" version="1.1" x="0" y="0" viewBox="0 9.78600025177002 100.0003433227539 80.42699432373047" enable-background="new 0 0 100 100" xml:space="preserve" width="74.37255642375158" height="59.815406373443494" class="icon-icon-0" data-fill-palette-color="quaternary" id="icon-0"><path d="M49.942 52.994c13.552-0.488 27.103-0.977 40.653-1.465-2.527-4.177-3.159-7.831-7.989-8.461-7.229-0.94-14.458-1.883-21.688-2.826-14.023-1.827-28.05-3.654-42.075-5.48C20.101 36.792 39.724 53.361 49.942 52.994z" fill="#883d1a" data-fill-palette-color="quaternary"></path><path d="M0 9.786c4.391 7.257 26.615 23.072 32.953 23.886 17.33 2.231 34.657 4.46 51.986 6.688-3.393-5.607-4.18-9.35-10.312-10.959-8.904-2.341-17.812-4.683-26.717-7.023C31.94 18.182 15.97 13.984 0 9.786z" fill="#883d1a" data-fill-palette-color="quaternary"></path><path d="M63.108 66.207c10.413-2.219 20.826-4.439 31.241-6.66-2.028-3.346-2.034-5.359-5.827-5.189-6.158 0.273-12.314 0.549-18.471 0.822-11.343 0.506-22.686 1.014-34.028 1.518C37.298 58.064 54.94 67.947 63.108 66.207z" fill="#883d1a" data-fill-palette-color="quaternary"></path><path d="M87.682 90.213c5.725-3.719 7.262-7.721 10.519-13.807 3.651-6.824 1.257-7.844-2.821-14.596-0.417-0.688-5.842 0.232-6.453 0.904-0.745 0.818-0.248 5.455-0.294 6.496C88.315 76.211 87.998 83.213 87.682 90.213z" fill="#883d1a" data-fill-palette-color="quaternary"></path><path d="M86.35 63.447c-3.795 0.809-8.604 0.191-9.572 4.229-1.373 5.736-2.746 11.475-4.12 17.211C81.904 82.678 86.028 71.582 86.35 63.447z" fill="#883d1a" data-fill-palette-color="quaternary"></path><path d="M74.666 66.121c-9.148 1.953-8.956 4.611-12.879 13.18C68.007 78.711 73.811 71.941 74.666 66.121z" fill="#883d1a" data-fill-palette-color="quaternary"></path></svg></g></svg></g><g></g></svg></g></svg></g></svg></g></svg></g><defs></defs></svg><rect width="342.85155851775386" height="342.85155851775386" fill="none" stroke="none" visibility="hidden"></rect></g></svg></g></svg>